<?xml version="1.0" encoding="windows-1252"?>
<!-- Generator: Adobe Illustrator 19.0.0, SVG Export Plug-In . SVG Version: 6.00 Build 0)  -->
<svg xmlns="http://www.w3.org/2000/svg" xmlns:xlink="http://www.w3.org/1999/xlink" version="1.1" id="Capa_1" x="0px" y="0px" viewBox="0 0 490 490" style="enable-background:new 0 0 490 490;" xml:space="preserve" width="512px" height="512px">
<g>
	<path d="M245.003,490c-23.671,0-45.928-9.219-62.661-25.957c-12.803-12.797-29.816-19.848-47.918-19.848   c-48.864,0-88.617-39.753-88.617-88.617c0-18.097-7.051-35.114-19.848-47.918C9.221,290.927,0.003,268.671,0.003,245   c-0.005-23.671,9.213-45.922,25.951-62.661c12.798-12.803,19.848-29.815,19.848-47.918c0-48.864,39.753-88.617,88.617-88.617   c18.103,0,35.12-7.05,47.918-19.848C199.08,9.219,221.331,0,245.003,0c23.666,0,45.921,9.219,62.66,25.956   c12.803,12.798,29.816,19.848,47.918,19.848c48.864,0,88.617,39.753,88.617,88.612c0,18.103,7.051,35.12,19.848,47.923   c16.738,16.738,25.952,38.989,25.952,62.661s-9.214,45.922-25.952,62.66c-12.797,12.804-19.848,29.821-19.848,47.918   c0,48.864-39.753,88.617-88.612,88.617c-18.102,0-35.12,7.051-47.923,19.848C290.929,480.781,268.674,490,245.003,490z    M245.003,20.851c-18.103,0-35.12,7.05-47.918,19.848c-16.738,16.738-38.989,25.956-62.661,25.956   c-37.37,0-67.771,30.401-67.771,67.766c0,23.666-9.214,45.922-25.951,62.661C27.903,209.88,20.854,226.897,20.854,245   c0,18.102,7.05,35.119,19.848,47.918c16.737,16.742,25.956,38.999,25.956,62.66c0,37.365,30.401,67.766,67.766,67.766   c23.671,0,45.922,9.219,62.661,25.957c12.797,12.797,29.815,19.848,47.918,19.848c18.102,0,35.119-7.051,47.918-19.848   c16.737-16.738,38.988-25.957,62.66-25.957c37.365,0,67.766-30.401,67.766-67.766c0-23.661,9.219-45.917,25.957-62.66   c26.419-26.42,26.419-69.415,0-95.836c-16.738-16.738-25.957-38.989-25.957-62.661c0-37.365-30.401-67.766-67.766-67.766   c-23.671,0-45.922-9.218-62.66-25.956C280.117,27.901,263.099,20.851,245.003,20.851z" fill="#FFFFFF"/>
	<path d="M245.003,431.987c-49.945,0-96.9-19.451-132.219-54.769c-72.907-72.903-72.907-191.534,0-264.436   c35.313-35.318,82.269-54.769,132.219-54.769c49.943,0,96.899,19.452,132.218,54.769c72.908,72.903,72.908,191.534,0,264.436   C341.902,412.536,294.946,431.987,245.003,431.987z M245.003,78.863c-44.38,0-86.097,17.282-117.476,48.661   c-64.773,64.778-64.773,170.174,0,234.951c31.379,31.379,73.101,48.661,117.476,48.661c44.374,0,86.097-17.282,117.475-48.661   c64.773-64.777,64.773-170.173,0-234.951C331.1,96.145,289.377,78.863,245.003,78.863z" fill="#FFFFFF"/>
	<path d="M142.814,306.229c-0.214,2.128,0.468,3.986,2.057,5.564c1.577,1.584,3.543,2.128,5.915,1.63   c2.361-0.489,6.749-2.684,13.184-6.572c6.424-3.885,12.34-5.986,17.736-6.297c5.386-0.311,10.517,1.97,15.393,6.846   c4.867,4.872,7.005,10.655,6.374,17.344c-0.611,6.689-3.91,13.016-9.876,18.978c-8.603,8.603-19.548,13.17-32.824,13.689   l-1.63-16.106c10.996-0.718,18.978-3.569,23.957-8.552c2.229-2.225,3.492-4.455,3.807-6.689c0.316-2.225-0.346-4.164-1.985-5.799   c-1.63-1.634-3.604-2.25-5.905-1.858c-2.311,0.387-5.956,2.087-10.935,5.091c-7.819,4.826-14.416,7.498-19.751,8.017   c-5.345,0.514-10.588-1.807-15.75-6.968c-5.163-5.158-7.291-10.986-6.374-17.502c0.906-6.5,4.123-12.527,9.682-18.076   c3.625-3.63,7.881-6.639,12.747-9.026c4.886-2.387,9.804-3.787,14.783-4.199l2.728,15.012c-8.308,1.135-14.967,4.231-19.996,9.255   C144.138,302.03,143.017,304.101,142.814,306.229z" fill="#FFFFFF"/>
	<path d="M261.343,274.728l-16.799-6.689l-22.785,22.786l6.679,16.804l-12.899,12.905l-30.879-77.856l11.749-11.743l77.845,30.879   L261.343,274.728z M206.751,252.946l8.939,22.638l13.623-13.618L206.751,252.946z" fill="#FFFFFF"/>
	<path d="M280.565,255.512l-54.368-54.368l12.126-12.13l43.565,43.56l23.173-23.183l10.812,10.808L280.565,255.512z" fill="#FFFFFF"/>
	<path d="M309.561,117.771l10.813,10.812l-27.063,27.072l11.2,11.199l24.343-24.349l10.344,10.344l-24.343,24.349l11.27,11.275   l27.927-27.927l10.731,10.736l-40.053,40.058l-54.367-54.368L309.561,117.771z" fill="#FFFFFF"/>
</g>
<g>
</g>
<g>
</g>
<g>
</g>
<g>
</g>
<g>
</g>
<g>
</g>
<g>
</g>
<g>
</g>
<g>
</g>
<g>
</g>
<g>
</g>
<g>
</g>
<g>
</g>
<g>
</g>
<g>
</g>
</svg>