<svg xmlns="http://www.w3.org/2000/svg" viewBox="0 0 5.76 5.76"><defs><style>.cls-1{fill:#b8f8ff;fill-rule:evenodd;}</style></defs><title>Ресурс 5</title><g id="Слой_2" data-name="Слой 2"><g id="Layer_1" data-name="Layer 1"><path class="cls-1" d="M2.88,0A2.88,2.88,0,1,1,0,2.88,2.88,2.88,0,0,1,2.88,0Zm1,1.68a.22.22,0,1,0,.22.22.22.22,0,0,0-.22-.22ZM3.78,3.13A.93.93,0,0,0,2,2.64a.93.93,0,0,0,1.79.49ZM2.29,3a.61.61,0,0,0,1.19-.28A.61.61,0,1,0,2.29,3ZM2.11,1.4c-.54,0-.7.29-.73.8a14.07,14.07,0,0,0,0,1.45c0,.53.23.67.74.72a9.52,9.52,0,0,0,1.51,0c.53,0,.67-.25.72-.77a8.57,8.57,0,0,0,0-1.52c-.05-.5-.29-.66-.78-.68s-1,0-1.47,0ZM2,4.7a11.32,11.32,0,0,0,1.75,0,1,1,0,0,0,.87-.88A8.61,8.61,0,0,0,4.67,2a1,1,0,0,0-.93-.88,11,11,0,0,0-1.82,0C.81,1.26,1,3,1.1,3.81A.93.93,0,0,0,2,4.7Z"/></g></g></svg>