<svg xmlns="http://www.w3.org/2000/svg" viewBox="0 0 5.76 5.76"><defs><style>.cls-1{fill:#b8f8ff;fill-rule:evenodd;}</style></defs><title>Ресурс 7</title><g id="Слой_2" data-name="Слой 2"><g id="Layer_1" data-name="Layer 1"><path class="cls-1" d="M2.88,0A2.88,2.88,0,1,1,0,2.88,2.88,2.88,0,0,1,2.88,0Zm.71,1.49c-.82.36-1.67.72-2.49,1.09-.2.09-.45.14-.44.34S.82,3,1,3.1s.6.26.88,0l1-.7c.13-.09.56-.45.71-.41s-.25.38-.33.46-.59.61-.79.79-.11.32.07.47.65.46.92.66c.1.07.39.25.56.14s.13-.39.17-.6.31-2,.34-2.27c.08-.68-.06-.6-.65-.34A2.33,2.33,0,0,1,3.59,1.49Z"/></g></g></svg>