<svg xmlns="http://www.w3.org/2000/svg" viewBox="0 0 5.76 5.76"><defs><style>.cls-1{fill:#b8f8ff;fill-rule:evenodd;}</style></defs><title>Ресурс 6</title><g id="Слой_2" data-name="Слой 2"><g id="Layer_1" data-name="Layer 1"><path class="cls-1" d="M2.88,0A2.88,2.88,0,1,1,0,2.88,2.88,2.88,0,0,1,2.88,0ZM1,2.2,1.41,3A2.94,2.94,0,0,0,2,3.7l.3.21a1.21,1.21,0,0,0,.93.1V3.52c0-.2.2-.09.3,0s.44.42.6.57h.43c.14,0,.22,0,.2-.13s-.6-.69-.71-.87c0-.1.91-1.21.55-1.21H4a3.37,3.37,0,0,1-.61,1s-.2.15-.2,0V2c0-.13-.07-.13-.22-.15H2.67c-.09,0-.37,0-.36.13s.07.11.11.2c0,.71,0,.12,0,.91-.12.23-.53-.58-.55-.63l0-.06c-.21-.39,0-.55-.71-.51C.88,1.87.93,2,1,2.2Z"/></g></g></svg>