<?xml version="1.0" standalone="no"?>
<!DOCTYPE svg PUBLIC "-//W3C//DTD SVG 20010904//EN"
 "http://www.w3.org/TR/2001/REC-SVG-20010904/DTD/svg10.dtd">
<svg version="1.0" xmlns="http://www.w3.org/2000/svg"
 width="1920.000000pt" height="600.000000pt" viewBox="0 0 1920.000000 600.000000"
 preserveAspectRatio="xMidYMid meet">

<g transform="translate(0.000000,600.000000) scale(0.100000,-0.100000)"
fill="#000000" stroke="none">
<path d="M0 3550 l0 -2450 23 4 c12 3 215 8 452 11 237 3 495 7 575 10 80 2
242 7 360 10 441 11 950 28 1215 40 66 3 226 10 355 15 252 11 596 27 750 35
52 3 139 7 193 10 53 2 132 7 175 10 42 3 190 12 327 20 271 17 606 39 805 55
69 6 152 12 185 14 544 41 1217 124 1611 200 53 10 215 70 278 104 188 97 294
224 304 362 8 127 -52 233 -229 405 -183 177 -413 349 -864 644 -88 58 -161
109 -163 113 -2 4 -8 8 -12 8 -5 0 -51 30 -102 66 -51 37 -113 81 -137 98
-130 92 -381 315 -381 338 0 5 -9 17 -19 27 -11 11 -25 38 -31 61 -20 74 15
132 109 179 46 24 163 59 221 66 25 3 77 10 115 15 139 17 325 24 620 23 338
-1 599 -18 1062 -68 129 -15 480 -60 668 -86 116 -17 226 -32 245 -35 19 -2
46 -6 60 -9 14 -3 45 -7 70 -10 61 -7 671 -105 690 -110 8 -3 32 -7 52 -9 52
-7 420 -70 618 -106 91 -17 179 -32 197 -35 17 -3 281 -50 585 -105 612 -110
617 -111 773 -141 61 -11 124 -23 140 -25 17 -2 80 -13 140 -24 176 -32 397
-71 430 -75 17 -3 98 -16 180 -31 83 -14 161 -27 175 -29 14 -2 88 -13 165
-25 278 -42 496 -71 790 -105 372 -44 968 -73 1285 -63 636 20 1030 105 1317
284 87 54 192 165 232 245 82 164 64 375 -49 572 -133 234 -335 442 -815 842
-71 60 -141 118 -155 131 -14 12 -65 57 -115 99 -173 150 -280 268 -299 331
-15 48 53 133 159 201 55 35 165 86 165 77 0 -4 6 -2 13 4 14 11 134 45 217
61 57 11 83 14 260 32 124 12 798 5 940 -10 52 -5 129 -13 170 -16 41 -3 134
-13 205 -21 72 -8 153 -17 180 -20 28 -3 142 -16 255 -30 113 -14 225 -27 250
-30 25 -3 113 -14 195 -25 83 -11 157 -20 165 -21 8 0 107 -11 220 -25 113
-13 230 -26 260 -29 30 -2 66 -7 80 -9 14 -3 52 -7 85 -11 33 -3 89 -9 125
-14 36 -6 68 -10 73 -10 4 0 7 99 7 220 l0 220 -9600 0 -9600 0 0 -2450z"/>
<path d="M18570 4913 c-183 -11 -420 -53 -530 -95 -91 -34 -188 -116 -214
-180 -67 -159 71 -329 609 -750 61 -47 119 -94 130 -105 11 -10 56 -47 100
-81 184 -146 392 -348 489 -477 21 -27 40 -52 42 -54 2 -2 4 390 4 872 l0 877
-287 -2 c-159 -1 -313 -3 -343 -5z"/>
<path d="M8750 3114 c-235 -18 -398 -39 -449 -60 -47 -18 -66 -49 -62 -99 3
-32 38 -122 56 -141 5 -7 30 -37 54 -69 53 -67 192 -191 363 -322 67 -52 135
-105 150 -116 15 -12 42 -32 60 -45 85 -61 473 -340 556 -400 566 -408 712
-552 712 -702 0 -99 -65 -196 -195 -293 -176 -131 -393 -209 -750 -268 -118
-19 -531 -70 -543 -67 -4 1 -32 -1 -62 -5 -112 -15 -680 -59 -920 -72 -52 -3
-111 -7 -130 -10 -19 -2 -87 -7 -150 -10 -63 -3 -140 -7 -170 -10 -30 -3 -138
-10 -240 -15 -102 -5 -268 -14 -370 -20 -202 -10 -559 -27 -740 -35 -63 -3
-155 -7 -205 -10 -49 -3 -155 -7 -235 -10 -80 -3 -188 -7 -240 -10 -85 -5
-353 -15 -780 -30 -80 -3 -194 -7 -255 -10 -104 -5 -299 -12 -1005 -35 -168
-5 -375 -12 -460 -15 -292 -10 -1116 -34 -1150 -33 -8 0 -168 -5 -355 -11
-298 -10 -1113 -30 -1202 -31 l-33 0 0 -80 0 -80 9600 0 9600 0 0 1296 0 1295
-62 -44 c-308 -218 -945 -327 -1910 -327 -299 0 -834 20 -938 35 -19 3 -73 7
-120 11 -47 3 -152 12 -235 20 -82 9 -157 16 -165 16 -8 0 -89 9 -180 20 -91
10 -187 21 -215 24 -147 14 -829 108 -1020 140 -49 8 -108 17 -130 20 -52 7
-235 36 -865 140 -283 46 -571 93 -640 104 -69 11 -195 31 -280 45 -425 67
-1317 195 -1615 230 -139 17 -409 46 -455 50 -30 3 -109 10 -175 16 -424 38
-1092 49 -1445 23z"/>
</g>
</svg>
